<?xml version="1.0" encoding="UTF-8" standalone="no"?><!DOCTYPE svg PUBLIC "-//W3C//DTD SVG 1.1//EN" "http://www.w3.org/Graphics/SVG/1.1/DTD/svg11.dtd"><svg width="100%" height="100%" viewBox="0 0 157 63" version="1.1" xmlns="http://www.w3.org/2000/svg" xmlns:xlink="http://www.w3.org/1999/xlink" xml:space="preserve" xmlns:serif="http://www.serif.com/" style="fill-rule:evenodd;clip-rule:evenodd;stroke-linejoin:round;stroke-miterlimit:2;"><g><path d="M29.25,56.639l0,-3.332l2.028,0l0,0.564l-1.478,0l0,0.738l1.373,0l0,0.562l-1.373,0l0,0.905l1.528,0l0,0.563l-2.078,0Z" style="fill:#3b4da1;fill-rule:nonzero;"/><path d="M31.626,56.639l0.944,-1.734l-0.858,-1.598l0.645,0l0.541,0.997l0.545,-0.997l0.638,0l-0.858,1.594l0.944,1.738l-0.665,0l-0.607,-1.129l-0.608,1.129l-0.661,0Z" style="fill:#3b4da1;fill-rule:nonzero;"/><path d="M34.554,56.639l0,-3.332l0.886,0c0.331,0 0.547,0.016 0.648,0.048c0.162,0.051 0.296,0.161 0.401,0.329c0.106,0.168 0.158,0.385 0.158,0.65c0,0.241 -0.045,0.443 -0.136,0.606c-0.091,0.163 -0.205,0.277 -0.341,0.343c-0.136,0.066 -0.371,0.099 -0.705,0.099l-0.361,0l0,1.257l-0.55,0Zm0.55,-2.768l0,0.947l0.305,0c0.205,0 0.345,-0.014 0.418,-0.043c0.074,-0.029 0.134,-0.081 0.181,-0.156c0.048,-0.075 0.071,-0.167 0.071,-0.277c0,-0.111 -0.024,-0.204 -0.073,-0.28c-0.048,-0.076 -0.108,-0.127 -0.18,-0.153c-0.071,-0.026 -0.222,-0.038 -0.453,-0.038l-0.269,0Z" style="fill:#3b4da1;fill-rule:nonzero;"/><path d="M37.209,56.639l0,-3.332l2.028,0l0,0.564l-1.478,0l0,0.738l1.373,0l0,0.562l-1.373,0l0,0.905l1.528,0l0,0.563l-2.078,0Z" style="fill:#3b4da1;fill-rule:nonzero;"/><path d="M39.862,56.639l0,-3.332l1.162,0c0.297,0 0.509,0.03 0.636,0.09c0.127,0.059 0.232,0.163 0.314,0.311c0.082,0.148 0.123,0.325 0.123,0.531c0,0.26 -0.063,0.47 -0.188,0.629c-0.125,0.16 -0.303,0.26 -0.533,0.301c0.118,0.084 0.216,0.177 0.293,0.278c0.078,0.101 0.183,0.282 0.316,0.542l0.332,0.65l-0.658,0l-0.399,-0.725c-0.144,-0.262 -0.242,-0.426 -0.293,-0.492c-0.052,-0.066 -0.106,-0.111 -0.164,-0.136c-0.057,-0.025 -0.15,-0.038 -0.277,-0.038l-0.114,0l0,1.391l-0.55,0Zm0.55,-1.923l0.409,0c0.25,0 0.41,-0.011 0.478,-0.033c0.068,-0.022 0.123,-0.066 0.166,-0.133c0.042,-0.066 0.063,-0.155 0.063,-0.266c0,-0.106 -0.021,-0.191 -0.063,-0.255c-0.043,-0.065 -0.1,-0.109 -0.173,-0.133c-0.052,-0.017 -0.201,-0.025 -0.448,-0.025l-0.432,0l0,0.845Z" style="fill:#3b4da1;fill-rule:nonzero;"/><path d="M43.338,56.639l0,-2.768l-0.812,0l0,-0.564l2.171,0l0,0.564l-0.809,0l0,2.768l-0.55,0Z" style="fill:#3b4da1;fill-rule:nonzero;"/><rect x="45.145" y="53.307" width="0.55" height="3.332" style="fill:#3b4da1;fill-rule:nonzero;"/><path d="M46.191,55.553l0.539,-0.064c0.061,0.426 0.259,0.639 0.596,0.639c0.166,0 0.297,-0.044 0.393,-0.131c0.095,-0.087 0.143,-0.195 0.143,-0.324c0,-0.075 -0.017,-0.14 -0.05,-0.193c-0.033,-0.053 -0.084,-0.096 -0.152,-0.13c-0.068,-0.034 -0.234,-0.092 -0.496,-0.172c-0.235,-0.071 -0.407,-0.148 -0.516,-0.231c-0.109,-0.084 -0.196,-0.193 -0.26,-0.329c-0.065,-0.135 -0.097,-0.281 -0.097,-0.437c0,-0.181 0.042,-0.345 0.124,-0.49c0.083,-0.146 0.197,-0.256 0.342,-0.33c0.146,-0.074 0.325,-0.111 0.539,-0.111c0.321,0 0.572,0.087 0.752,0.261c0.181,0.175 0.276,0.424 0.287,0.748l-0.553,0.03c-0.024,-0.179 -0.076,-0.304 -0.156,-0.375c-0.081,-0.071 -0.195,-0.107 -0.344,-0.107c-0.148,0 -0.263,0.031 -0.343,0.093c-0.08,0.062 -0.12,0.139 -0.12,0.231c0,0.091 0.036,0.167 0.109,0.229c0.073,0.062 0.24,0.13 0.503,0.204c0.277,0.081 0.477,0.165 0.601,0.254c0.123,0.088 0.217,0.203 0.282,0.343c0.066,0.14 0.098,0.31 0.098,0.51c0,0.29 -0.089,0.533 -0.267,0.73c-0.178,0.197 -0.456,0.295 -0.835,0.295c-0.67,0 -1.043,-0.381 -1.119,-1.143Z" style="fill:#3b4da1;fill-rule:nonzero;"/><path d="M48.985,56.639l0,-3.332l2.028,0l0,0.564l-1.478,0l0,0.738l1.373,0l0,0.562l-1.373,0l0,0.905l1.528,0l0,0.563l-2.078,0Z" style="fill:#3b4da1;fill-rule:nonzero;"/><rect x="52.789" y="53.307" width="0.55" height="3.332" style="fill:#3b4da1;fill-rule:nonzero;"/><path d="M53.98,56.639l0,-3.332l0.537,0l1.118,2.225l0,-2.225l0.514,0l0,3.332l-0.555,0l-1.1,-2.173l0,2.173l-0.514,0Z" style="fill:#3b4da1;fill-rule:nonzero;"/><path d="M59.754,55.414l0.535,0.207c-0.084,0.373 -0.222,0.645 -0.416,0.817c-0.194,0.172 -0.433,0.258 -0.716,0.258c-0.357,0 -0.645,-0.137 -0.867,-0.411c-0.254,-0.317 -0.381,-0.744 -0.381,-1.282c0,-0.569 0.128,-1.013 0.384,-1.335c0.223,-0.279 0.523,-0.418 0.899,-0.418c0.306,0 0.563,0.105 0.769,0.314c0.147,0.148 0.255,0.369 0.323,0.661l-0.546,0.159c-0.034,-0.18 -0.104,-0.318 -0.208,-0.415c-0.104,-0.096 -0.227,-0.144 -0.368,-0.144c-0.202,0 -0.366,0.088 -0.494,0.264c-0.127,0.176 -0.191,0.466 -0.191,0.87c0,0.42 0.062,0.719 0.186,0.896c0.124,0.177 0.286,0.266 0.484,0.266c0.146,0 0.272,-0.056 0.378,-0.169c0.106,-0.113 0.182,-0.292 0.229,-0.538Z" style="fill:#3b4da1;fill-rule:nonzero;"/><path d="M60.862,53.307l0.55,0l0,1.805c0,0.28 0.007,0.463 0.02,0.548c0.025,0.147 0.083,0.26 0.174,0.341c0.092,0.08 0.213,0.12 0.364,0.12c0.127,0 0.231,-0.028 0.312,-0.085c0.08,-0.057 0.135,-0.136 0.165,-0.237c0.03,-0.1 0.044,-0.317 0.044,-0.649l0,-1.843l0.551,0l0,1.75c0,0.447 -0.024,0.77 -0.072,0.97c-0.048,0.199 -0.155,0.36 -0.323,0.484c-0.167,0.123 -0.388,0.185 -0.662,0.185c-0.285,0 -0.508,-0.051 -0.668,-0.153c-0.16,-0.103 -0.275,-0.247 -0.347,-0.432c-0.072,-0.186 -0.108,-0.528 -0.108,-1.027l0,-1.777Z" style="fill:#3b4da1;fill-rule:nonzero;"/><path d="M63.59,55.553l0.538,-0.064c0.061,0.426 0.26,0.639 0.596,0.639c0.167,0 0.298,-0.044 0.393,-0.131c0.096,-0.087 0.143,-0.195 0.143,-0.324c0,-0.075 -0.016,-0.14 -0.05,-0.193c-0.033,-0.053 -0.084,-0.096 -0.152,-0.13c-0.068,-0.034 -0.233,-0.092 -0.495,-0.172c-0.235,-0.071 -0.407,-0.148 -0.516,-0.231c-0.11,-0.084 -0.196,-0.193 -0.261,-0.329c-0.064,-0.135 -0.096,-0.281 -0.096,-0.437c0,-0.181 0.041,-0.345 0.124,-0.49c0.082,-0.146 0.196,-0.256 0.342,-0.33c0.145,-0.074 0.325,-0.111 0.538,-0.111c0.322,0 0.572,0.087 0.753,0.261c0.18,0.175 0.276,0.424 0.286,0.748l-0.552,0.03c-0.024,-0.179 -0.077,-0.304 -0.157,-0.375c-0.08,-0.071 -0.195,-0.107 -0.343,-0.107c-0.149,0 -0.263,0.031 -0.343,0.093c-0.081,0.062 -0.121,0.139 -0.121,0.231c0,0.091 0.036,0.167 0.109,0.229c0.073,0.062 0.241,0.13 0.503,0.204c0.277,0.081 0.478,0.165 0.601,0.254c0.123,0.088 0.218,0.203 0.283,0.343c0.065,0.14 0.098,0.31 0.098,0.51c0,0.29 -0.09,0.533 -0.268,0.73c-0.178,0.197 -0.456,0.295 -0.835,0.295c-0.67,0 -1.043,-0.381 -1.118,-1.143Z" style="fill:#3b4da1;fill-rule:nonzero;"/><path d="M66.997,56.639l0,-2.768l-0.811,0l0,-0.564l2.171,0l0,0.564l-0.81,0l0,2.768l-0.55,0Z" style="fill:#3b4da1;fill-rule:nonzero;"/><path d="M68.643,54.994c0,-0.398 0.059,-0.724 0.177,-0.981c0.117,-0.257 0.27,-0.449 0.46,-0.574c0.189,-0.126 0.419,-0.189 0.689,-0.189c0.391,0 0.709,0.149 0.955,0.448c0.247,0.298 0.37,0.723 0.37,1.275c0,0.558 -0.13,0.993 -0.391,1.307c-0.229,0.277 -0.54,0.416 -0.932,0.416c-0.396,0 -0.708,-0.137 -0.937,-0.411c-0.26,-0.314 -0.391,-0.744 -0.391,-1.291Zm0.569,-0.023c0,0.383 0.072,0.671 0.218,0.862c0.146,0.192 0.326,0.288 0.542,0.288c0.217,0 0.397,-0.095 0.54,-0.285c0.142,-0.19 0.214,-0.483 0.214,-0.877c0,-0.386 -0.07,-0.672 -0.209,-0.857c-0.139,-0.184 -0.32,-0.277 -0.545,-0.277c-0.225,0 -0.407,0.093 -0.549,0.28c-0.141,0.186 -0.211,0.475 -0.211,0.866Z" style="fill:#3b4da1;fill-rule:nonzero;"/><path d="M71.826,56.639l0,-3.332l0.825,0l0.497,2.275l0.493,-2.275l0.829,0l0,3.332l-0.514,0l0,-2.625l-0.545,2.625l-0.531,0l-0.54,-2.625l0,2.625l-0.514,0Z" style="fill:#3b4da1;fill-rule:nonzero;"/><path d="M76.15,55.553l0.539,-0.064c0.06,0.426 0.259,0.639 0.595,0.639c0.167,0 0.298,-0.044 0.394,-0.131c0.095,-0.087 0.143,-0.195 0.143,-0.324c0,-0.075 -0.017,-0.14 -0.05,-0.193c-0.034,-0.053 -0.084,-0.096 -0.153,-0.13c-0.068,-0.034 -0.233,-0.092 -0.495,-0.172c-0.235,-0.071 -0.407,-0.148 -0.516,-0.231c-0.109,-0.084 -0.196,-0.193 -0.26,-0.329c-0.065,-0.135 -0.097,-0.281 -0.097,-0.437c0,-0.181 0.041,-0.345 0.124,-0.49c0.083,-0.146 0.197,-0.256 0.342,-0.33c0.146,-0.074 0.325,-0.111 0.539,-0.111c0.321,0 0.572,0.087 0.752,0.261c0.181,0.175 0.276,0.424 0.287,0.748l-0.553,0.03c-0.024,-0.179 -0.076,-0.304 -0.157,-0.375c-0.08,-0.071 -0.194,-0.107 -0.343,-0.107c-0.148,0 -0.263,0.031 -0.343,0.093c-0.08,0.062 -0.121,0.139 -0.121,0.231c0,0.091 0.037,0.167 0.11,0.229c0.073,0.062 0.24,0.13 0.502,0.204c0.278,0.081 0.478,0.165 0.601,0.254c0.124,0.088 0.218,0.203 0.283,0.343c0.065,0.14 0.098,0.31 0.098,0.51c0,0.29 -0.089,0.533 -0.267,0.73c-0.178,0.197 -0.457,0.295 -0.836,0.295c-0.669,0 -1.042,-0.381 -1.118,-1.143Z" style="fill:#3b4da1;fill-rule:nonzero;"/><path d="M79.66,56.639l0,-1.403l-1,-1.929l0.645,0l0.642,1.318l0.634,-1.318l0.634,0l-1.005,1.934l0,1.398l-0.55,0Z" style="fill:#3b4da1;fill-rule:nonzero;"/><path d="M81.602,56.639l0,-3.332l0.536,0l1.118,2.225l0,-2.225l0.514,0l0,3.332l-0.555,0l-1.1,-2.173l0,2.173l-0.513,0Z" style="fill:#3b4da1;fill-rule:nonzero;"/><path d="M85.073,56.639l0,-2.768l-0.812,0l0,-0.564l2.171,0l0,0.564l-0.809,0l0,2.768l-0.55,0Z" style="fill:#3b4da1;fill-rule:nonzero;"/><path d="M86.898,56.639l0,-3.332l0.551,0l0,1.311l1.084,0l0,-1.311l0.55,0l0,3.332l-0.55,0l0,-1.457l-1.084,0l0,1.457l-0.551,0Z" style="fill:#3b4da1;fill-rule:nonzero;"/><path d="M89.761,56.639l0,-3.332l2.027,0l0,0.564l-1.477,0l0,0.738l1.373,0l0,0.562l-1.373,0l0,0.905l1.527,0l0,0.563l-2.077,0Z" style="fill:#3b4da1;fill-rule:nonzero;"/><path d="M92.273,55.553l0.538,-0.064c0.061,0.426 0.26,0.639 0.596,0.639c0.167,0 0.298,-0.044 0.393,-0.131c0.096,-0.087 0.143,-0.195 0.143,-0.324c0,-0.075 -0.016,-0.14 -0.05,-0.193c-0.033,-0.053 -0.084,-0.096 -0.152,-0.13c-0.068,-0.034 -0.233,-0.092 -0.495,-0.172c-0.235,-0.071 -0.407,-0.148 -0.516,-0.231c-0.109,-0.084 -0.196,-0.193 -0.261,-0.329c-0.064,-0.135 -0.096,-0.281 -0.096,-0.437c0,-0.181 0.041,-0.345 0.124,-0.49c0.082,-0.146 0.196,-0.256 0.342,-0.33c0.145,-0.074 0.325,-0.111 0.538,-0.111c0.322,0 0.573,0.087 0.753,0.261c0.18,0.175 0.276,0.424 0.286,0.748l-0.552,0.03c-0.024,-0.179 -0.077,-0.304 -0.157,-0.375c-0.08,-0.071 -0.195,-0.107 -0.343,-0.107c-0.149,0 -0.263,0.031 -0.343,0.093c-0.081,0.062 -0.121,0.139 -0.121,0.231c0,0.091 0.037,0.167 0.109,0.229c0.073,0.062 0.241,0.13 0.503,0.204c0.277,0.081 0.478,0.165 0.601,0.254c0.123,0.088 0.218,0.203 0.283,0.343c0.065,0.14 0.098,0.31 0.098,0.51c0,0.29 -0.089,0.533 -0.268,0.73c-0.178,0.197 -0.456,0.295 -0.835,0.295c-0.67,0 -1.043,-0.381 -1.118,-1.143Z" style="fill:#3b4da1;fill-rule:nonzero;"/><rect x="95.048" y="53.307" width="0.55" height="3.332" style="fill:#3b4da1;fill-rule:nonzero;"/><path d="M96.094,55.553l0.539,-0.064c0.061,0.426 0.259,0.639 0.596,0.639c0.166,0 0.297,-0.044 0.393,-0.131c0.095,-0.087 0.143,-0.195 0.143,-0.324c0,-0.075 -0.017,-0.14 -0.05,-0.193c-0.033,-0.053 -0.084,-0.096 -0.152,-0.13c-0.068,-0.034 -0.234,-0.092 -0.496,-0.172c-0.235,-0.071 -0.407,-0.148 -0.516,-0.231c-0.109,-0.084 -0.196,-0.193 -0.26,-0.329c-0.064,-0.135 -0.097,-0.281 -0.097,-0.437c0,-0.181 0.042,-0.345 0.124,-0.49c0.083,-0.146 0.197,-0.256 0.342,-0.33c0.146,-0.074 0.325,-0.111 0.539,-0.111c0.321,0 0.572,0.087 0.753,0.261c0.18,0.175 0.275,0.424 0.286,0.748l-0.552,0.03c-0.025,-0.179 -0.077,-0.304 -0.157,-0.375c-0.081,-0.071 -0.195,-0.107 -0.344,-0.107c-0.148,0 -0.262,0.031 -0.343,0.093c-0.08,0.062 -0.12,0.139 -0.12,0.231c0,0.091 0.036,0.167 0.109,0.229c0.073,0.062 0.241,0.13 0.503,0.204c0.277,0.081 0.477,0.165 0.601,0.254c0.123,0.088 0.217,0.203 0.283,0.343c0.065,0.14 0.097,0.31 0.097,0.51c0,0.29 -0.089,0.533 -0.267,0.73c-0.178,0.197 -0.456,0.295 -0.835,0.295c-0.67,0 -1.043,-0.381 -1.119,-1.143Z" style="fill:#3b4da1;fill-rule:nonzero;"/><path d="M102.382,56.639l-0.598,0l-0.239,-0.754l-1.094,0l-0.226,0.754l-0.586,0l1.064,-3.332l0.584,0l1.095,3.332Zm-1.015,-1.318l-0.377,-1.237l-0.37,1.237l0.747,0Z" style="fill:#3b4da1;fill-rule:nonzero;"/><path d="M102.785,56.639l0,-3.332l0.536,0l1.119,2.225l0,-2.225l0.514,0l0,3.332l-0.555,0l-1.1,-2.173l0,2.173l-0.514,0Z" style="fill:#3b4da1;fill-rule:nonzero;"/><path d="M105.638,53.307l1.006,0c0.254,0 0.446,0.028 0.576,0.085c0.129,0.057 0.248,0.153 0.357,0.288c0.109,0.135 0.195,0.31 0.257,0.525c0.062,0.215 0.093,0.482 0.093,0.802c0,0.288 -0.032,0.539 -0.098,0.751c-0.065,0.213 -0.147,0.382 -0.247,0.506c-0.1,0.124 -0.221,0.218 -0.362,0.281c-0.142,0.063 -0.324,0.094 -0.546,0.094l-1.036,0l0,-3.332Zm0.55,0.564l0,2.205l0.414,0c0.177,0 0.306,-0.017 0.385,-0.05c0.08,-0.034 0.145,-0.084 0.196,-0.151c0.05,-0.068 0.092,-0.174 0.126,-0.319c0.033,-0.146 0.05,-0.337 0.05,-0.575c0,-0.247 -0.017,-0.441 -0.051,-0.584c-0.034,-0.142 -0.087,-0.254 -0.159,-0.336c-0.072,-0.081 -0.16,-0.135 -0.263,-0.161c-0.077,-0.02 -0.227,-0.029 -0.448,-0.029l-0.25,0Z" style="fill:#3b4da1;fill-rule:nonzero;"/><path d="M109.673,56.639l0,-3.332l1.162,0c0.297,0 0.509,0.03 0.636,0.09c0.128,0.059 0.232,0.163 0.314,0.311c0.082,0.148 0.123,0.325 0.123,0.531c0,0.26 -0.063,0.47 -0.188,0.629c-0.125,0.16 -0.302,0.26 -0.533,0.301c0.118,0.084 0.216,0.177 0.294,0.278c0.077,0.101 0.182,0.282 0.316,0.542l0.331,0.65l-0.658,0l-0.399,-0.725c-0.144,-0.262 -0.241,-0.426 -0.293,-0.492c-0.051,-0.066 -0.106,-0.111 -0.164,-0.136c-0.057,-0.025 -0.15,-0.038 -0.277,-0.038l-0.114,0l0,1.391l-0.55,0Zm0.55,-1.923l0.41,0c0.25,0 0.409,-0.011 0.477,-0.033c0.068,-0.022 0.124,-0.066 0.166,-0.133c0.042,-0.066 0.064,-0.155 0.064,-0.266c0,-0.106 -0.022,-0.191 -0.064,-0.255c-0.042,-0.065 -0.1,-0.109 -0.173,-0.133c-0.051,-0.017 -0.201,-0.025 -0.448,-0.025l-0.432,0l0,0.845Z" style="fill:#3b4da1;fill-rule:nonzero;"/><path d="M112.536,56.639l0,-3.332l2.027,0l0,0.564l-1.477,0l0,0.738l1.373,0l0,0.562l-1.373,0l0,0.905l1.527,0l0,0.563l-2.077,0Z" style="fill:#3b4da1;fill-rule:nonzero;"/><path d="M115.191,56.639l0,-3.332l1.873,0l0,0.564l-1.323,0l0,0.788l1.146,0l0,0.564l-1.146,0l0,1.416l-0.55,0Z" style="fill:#3b4da1;fill-rule:nonzero;"/><path d="M117.628,56.639l0,-3.332l2.028,0l0,0.564l-1.478,0l0,0.738l1.373,0l0,0.562l-1.373,0l0,0.905l1.528,0l0,0.563l-2.078,0Z" style="fill:#3b4da1;fill-rule:nonzero;"/><path d="M120.281,56.639l0,-3.332l1.161,0c0.297,0 0.51,0.03 0.637,0.09c0.127,0.059 0.232,0.163 0.314,0.311c0.081,0.148 0.122,0.325 0.122,0.531c0,0.26 -0.062,0.47 -0.187,0.629c-0.125,0.16 -0.303,0.26 -0.533,0.301c0.118,0.084 0.216,0.177 0.293,0.278c0.077,0.101 0.183,0.282 0.316,0.542l0.332,0.65l-0.658,0l-0.4,-0.725c-0.143,-0.262 -0.241,-0.426 -0.292,-0.492c-0.052,-0.066 -0.106,-0.111 -0.164,-0.136c-0.058,-0.025 -0.15,-0.038 -0.277,-0.038l-0.114,0l0,1.391l-0.55,0Zm0.55,-1.923l0.409,0c0.25,0 0.409,-0.011 0.478,-0.033c0.068,-0.022 0.123,-0.066 0.165,-0.133c0.043,-0.066 0.064,-0.155 0.064,-0.266c0,-0.106 -0.021,-0.191 -0.064,-0.255c-0.042,-0.065 -0.1,-0.109 -0.172,-0.133c-0.052,-0.017 -0.201,-0.025 -0.448,-0.025l-0.432,0l0,0.845Z" style="fill:#3b4da1;fill-rule:nonzero;"/><path d="M123.143,56.639l0,-3.332l2.028,0l0,0.564l-1.478,0l0,0.738l1.373,0l0,0.562l-1.373,0l0,0.905l1.528,0l0,0.563l-2.078,0Z" style="fill:#3b4da1;fill-rule:nonzero;"/><path d="M125.801,56.639l0,-3.332l0.536,0l1.118,2.225l0,-2.225l0.514,0l0,3.332l-0.554,0l-1.101,-2.173l0,2.173l-0.513,0Z" style="fill:#3b4da1;fill-rule:nonzero;"/><path d="M130.406,55.414l0.534,0.207c-0.083,0.373 -0.222,0.645 -0.416,0.817c-0.194,0.172 -0.432,0.258 -0.716,0.258c-0.356,0 -0.644,-0.137 -0.866,-0.411c-0.254,-0.317 -0.382,-0.744 -0.382,-1.282c0,-0.569 0.129,-1.013 0.385,-1.335c0.223,-0.279 0.523,-0.418 0.899,-0.418c0.306,0 0.562,0.105 0.769,0.314c0.147,0.148 0.255,0.369 0.323,0.661l-0.546,0.159c-0.035,-0.18 -0.104,-0.318 -0.208,-0.415c-0.104,-0.096 -0.227,-0.144 -0.368,-0.144c-0.202,0 -0.366,0.088 -0.494,0.264c-0.128,0.176 -0.191,0.466 -0.191,0.87c0,0.42 0.062,0.719 0.186,0.896c0.124,0.177 0.286,0.266 0.484,0.266c0.146,0 0.272,-0.056 0.378,-0.169c0.106,-0.113 0.182,-0.292 0.229,-0.538Z" style="fill:#3b4da1;fill-rule:nonzero;"/><path d="M131.52,56.639l0,-3.332l2.028,0l0,0.564l-1.478,0l0,0.738l1.373,0l0,0.562l-1.373,0l0,0.905l1.528,0l0,0.563l-2.078,0Z" style="fill:#3b4da1;fill-rule:nonzero;"/><path d="M135.201,55.553l0.539,-0.064c0.06,0.426 0.259,0.639 0.595,0.639c0.167,0 0.298,-0.044 0.394,-0.131c0.095,-0.087 0.143,-0.195 0.143,-0.324c0,-0.075 -0.017,-0.14 -0.05,-0.193c-0.034,-0.053 -0.084,-0.096 -0.152,-0.13c-0.069,-0.034 -0.234,-0.092 -0.496,-0.172c-0.235,-0.071 -0.407,-0.148 -0.516,-0.231c-0.109,-0.084 -0.196,-0.193 -0.26,-0.329c-0.065,-0.135 -0.097,-0.281 -0.097,-0.437c0,-0.181 0.041,-0.345 0.124,-0.49c0.083,-0.146 0.197,-0.256 0.342,-0.33c0.146,-0.074 0.325,-0.111 0.539,-0.111c0.321,0 0.572,0.087 0.752,0.261c0.181,0.175 0.276,0.424 0.287,0.748l-0.553,0.03c-0.024,-0.179 -0.076,-0.304 -0.157,-0.375c-0.08,-0.071 -0.194,-0.107 -0.343,-0.107c-0.148,0 -0.263,0.031 -0.343,0.093c-0.08,0.062 -0.121,0.139 -0.121,0.231c0,0.091 0.037,0.167 0.11,0.229c0.073,0.062 0.24,0.13 0.502,0.204c0.278,0.081 0.478,0.165 0.601,0.254c0.124,0.088 0.218,0.203 0.283,0.343c0.065,0.14 0.098,0.31 0.098,0.51c0,0.29 -0.089,0.533 -0.267,0.73c-0.178,0.197 -0.457,0.295 -0.836,0.295c-0.669,0 -1.042,-0.381 -1.118,-1.143Z" style="fill:#3b4da1;fill-rule:nonzero;"/><path d="M138.609,56.639l0,-2.768l-0.812,0l0,-0.564l2.171,0l0,0.564l-0.809,0l0,2.768l-0.55,0Z" style="fill:#3b4da1;fill-rule:nonzero;"/><path d="M142.619,56.639l-0.598,0l-0.24,-0.754l-1.093,0l-0.226,0.754l-0.587,0l1.064,-3.332l0.585,0l1.095,3.332Zm-1.015,-1.318l-0.377,-1.237l-0.371,1.237l0.748,0Z" style="fill:#3b4da1;fill-rule:nonzero;"/><path d="M143.021,56.639l0,-3.332l0.537,0l1.118,2.225l0,-2.225l0.514,0l0,3.332l-0.555,0l-1.1,-2.173l0,2.173l-0.514,0Z" style="fill:#3b4da1;fill-rule:nonzero;"/><path d="M145.874,53.307l1.007,0c0.254,0 0.446,0.028 0.575,0.085c0.13,0.057 0.249,0.153 0.358,0.288c0.109,0.135 0.194,0.31 0.256,0.525c0.063,0.215 0.094,0.482 0.094,0.802c0,0.288 -0.033,0.539 -0.098,0.751c-0.065,0.213 -0.148,0.382 -0.248,0.506c-0.1,0.124 -0.22,0.218 -0.362,0.281c-0.141,0.063 -0.323,0.094 -0.546,0.094l-1.036,0l0,-3.332Zm0.551,0.564l0,2.205l0.413,0c0.178,0 0.306,-0.017 0.386,-0.05c0.079,-0.034 0.144,-0.084 0.195,-0.151c0.051,-0.068 0.093,-0.174 0.126,-0.319c0.034,-0.146 0.05,-0.337 0.05,-0.575c0,-0.247 -0.017,-0.441 -0.051,-0.584c-0.034,-0.142 -0.087,-0.254 -0.159,-0.336c-0.072,-0.081 -0.159,-0.135 -0.263,-0.161c-0.077,-0.02 -0.226,-0.029 -0.447,-0.029l-0.25,0Z" style="fill:#3b4da1;fill-rule:nonzero;"/><path d="M151.205,56.639l-0.598,0l-0.239,-0.754l-1.094,0l-0.226,0.754l-0.586,0l1.064,-3.332l0.584,0l1.095,3.332Zm-1.015,-1.318l-0.377,-1.237l-0.37,1.237l0.747,0Z" style="fill:#3b4da1;fill-rule:nonzero;"/><path d="M151.603,56.639l0,-3.332l1.162,0c0.297,0 0.509,0.03 0.636,0.09c0.128,0.059 0.232,0.163 0.314,0.311c0.082,0.148 0.123,0.325 0.123,0.531c0,0.26 -0.063,0.47 -0.188,0.629c-0.125,0.16 -0.302,0.26 -0.533,0.301c0.118,0.084 0.216,0.177 0.293,0.278c0.078,0.101 0.183,0.282 0.316,0.542l0.332,0.65l-0.658,0l-0.399,-0.725c-0.144,-0.262 -0.241,-0.426 -0.293,-0.492c-0.051,-0.066 -0.106,-0.111 -0.164,-0.136c-0.057,-0.025 -0.15,-0.038 -0.277,-0.038l-0.114,0l0,1.391l-0.55,0Zm0.55,-1.923l0.41,0c0.25,0 0.409,-0.011 0.477,-0.033c0.068,-0.022 0.123,-0.066 0.166,-0.133c0.042,-0.066 0.064,-0.155 0.064,-0.266c0,-0.106 -0.022,-0.191 -0.064,-0.255c-0.043,-0.065 -0.1,-0.109 -0.173,-0.133c-0.051,-0.017 -0.201,-0.025 -0.448,-0.025l-0.432,0l0,0.845Z" style="fill:#3b4da1;fill-rule:nonzero;"/><path d="M154.461,53.307l1.006,0c0.254,0 0.446,0.028 0.576,0.085c0.129,0.057 0.248,0.153 0.357,0.288c0.109,0.135 0.195,0.31 0.257,0.525c0.062,0.215 0.093,0.482 0.093,0.802c0,0.288 -0.033,0.539 -0.098,0.751c-0.065,0.213 -0.147,0.382 -0.247,0.506c-0.1,0.124 -0.221,0.218 -0.362,0.281c-0.142,0.063 -0.324,0.094 -0.547,0.094l-1.035,0l0,-3.332Zm0.55,0.564l0,2.205l0.414,0c0.177,0 0.305,-0.017 0.385,-0.05c0.08,-0.034 0.145,-0.084 0.196,-0.151c0.05,-0.068 0.092,-0.174 0.126,-0.319c0.033,-0.146 0.05,-0.337 0.05,-0.575c0,-0.247 -0.017,-0.441 -0.051,-0.584c-0.035,-0.142 -0.088,-0.254 -0.16,-0.336c-0.072,-0.081 -0.159,-0.135 -0.262,-0.161c-0.077,-0.02 -0.227,-0.029 -0.448,-0.029l-0.25,0Z" style="fill:#3b4da1;fill-rule:nonzero;"/></g><g><path d="M29.25,50.798l0,-19.801l0.989,0l0,9.53l12.303,0l0,-9.53l0.989,0l0,19.801l-0.989,0l0,-9.283l-12.303,0l0,9.283l-0.989,0Z" style="fill:#3b4da1;fill-rule:nonzero;"/><path d="M60.887,50.798l-8.294,0c-1.336,0 -2.412,-0.398 -3.227,-1.195c-0.814,-0.796 -1.222,-1.844 -1.222,-3.144l0,-10.958c0,-1.355 0.421,-2.444 1.264,-3.268c0.842,-0.824 1.968,-1.236 3.378,-1.236l8.156,0l0,0.989l-8.192,0c-1.023,0 -1.882,0.29 -2.576,0.87c-0.694,0.581 -1.041,1.461 -1.041,2.64l0,5.031l11.809,0l-0.055,0.988l-11.754,0l0,4.806c0,1.081 0.32,1.932 0.961,2.554c0.641,0.623 1.52,0.934 2.637,0.934l8.156,0l0,0.989Z" style="fill:#3b4da1;fill-rule:nonzero;"/><path d="M65.144,50.798l0,-18.812c0,-0.476 0.036,-0.797 0.11,-0.961c0.073,-0.165 0.229,-0.248 0.467,-0.248c0.183,0 0.329,0.055 0.439,0.165c0.11,0.11 0.265,0.385 0.467,0.824l8.486,17.762l8.321,-17.817c0.275,-0.622 0.595,-0.934 0.961,-0.934c0.293,0.074 0.458,0.275 0.495,0.605l0,19.416l-0.989,0l0,-17.75l-7.791,16.683c-0.223,0.471 -0.408,0.789 -0.557,0.952c-0.148,0.164 -0.306,0.245 -0.472,0.245c-0.186,0 -0.325,-0.045 -0.417,-0.135c-0.093,-0.09 -0.251,-0.37 -0.473,-0.839l-8.059,-16.929l0,17.773l-0.988,0Z" style="fill:#3b4da1;fill-rule:nonzero;"/><path d="M87.114,50.798l7.745,-19.334c0.201,-0.476 0.494,-0.714 0.878,-0.714c0.348,0 0.632,0.238 0.852,0.714l7.744,19.334l-1.212,0.002l-2.244,-5.824l-10.307,0l-2.272,5.823l-1.184,-0.001Zm8.625,-19.019l-4.743,12.208l9.426,0l-4.683,-12.208Z" style="fill:#3b4da1;fill-rule:nonzero;"/><path d="M106.942,50.798l0,-19.801l9.31,0c1.575,0 2.774,0.375 3.598,1.126c0.824,0.751 1.235,1.858 1.235,3.323l0,2.664c0,1.337 -0.384,2.38 -1.153,3.131c-0.769,0.75 -1.84,1.126 -3.213,1.126l-6.976,0l11.232,8.432l-1.699,-0.005l-10.569,-7.969l-0.417,-0.334c-0.111,-0.112 -0.167,-0.278 -0.167,-0.501c0,-0.241 0.06,-0.403 0.179,-0.487c0.119,-0.083 0.352,-0.125 0.7,-0.125l7.662,0c1.08,0 1.922,-0.275 2.527,-0.826c0.604,-0.551 0.906,-1.331 0.906,-2.342l0,-2.836c0,-2.259 -1.273,-3.388 -3.817,-3.388l-8.349,0l0,18.812l-0.989,0Z" style="fill:#3b4da1;fill-rule:nonzero;"/><path d="M124.299,49.809l8.074,0c0.787,0 1.377,-0.055 1.771,-0.165c0.394,-0.11 0.76,-0.331 1.099,-0.661c0.338,-0.331 0.581,-0.68 0.727,-1.047c0.147,-0.368 0.22,-0.827 0.22,-1.378l0,-1.929c0,-2.259 -1.27,-3.388 -3.809,-3.388l-3.013,0c-1.626,0 -2.877,-0.347 -3.754,-1.041c-0.877,-0.694 -1.315,-1.707 -1.315,-3.04l0,-1.643c0,-1.461 0.448,-2.584 1.345,-3.369c0.495,-0.439 0.984,-0.74 1.47,-0.904c0.485,-0.165 1.176,-0.247 2.073,-0.247l8.074,0l0,0.989l-8.129,0c-2.563,0 -3.845,1.153 -3.845,3.46l0,1.511c0,1.135 0.394,1.986 1.181,2.554c0.44,0.311 0.806,0.503 1.099,0.576c0.293,0.074 0.897,0.11 1.812,0.11l3.021,0c1.556,0 2.742,0.372 3.557,1.115c0.814,0.744 1.222,1.813 1.222,3.208l0,1.982c0,1.414 -0.45,2.506 -1.349,3.277c-0.514,0.422 -0.991,0.698 -1.431,0.826c-0.44,0.129 -1.119,0.193 -2.037,0.193l-8.063,0l0,-0.989Z" style="fill:#3b4da1;fill-rule:nonzero;"/><path d="M141.051,50.798l0,-19.801l0.989,0l0,9.53l12.303,0l0,-9.53l0.989,0l0,19.801l-0.989,0l0,-9.283l-12.303,0l0,9.283l-0.989,0Z" style="fill:#3b4da1;fill-rule:nonzero;"/></g><path d="M16.855,0.018l9.978,-0.035l0,25.289l0,0l0,0c0,0 -13.28,15.235 -22.05,25.298c-1.347,1.545 -1.667,3.735 -0.818,5.601c0.849,1.866 2.71,3.064 4.759,3.064l148.511,0l0,3.101l-149.32,0c-3.1,0 -5.914,-1.809 -7.201,-4.629c-1.286,-2.82 -0.809,-6.131 1.223,-8.472l21.795,-25.121l0,-21.072c0,-0.214 -0.086,-0.42 -0.237,-0.571c-0.152,-0.152 -0.357,-0.237 -0.572,-0.237c-1.817,0 -6.068,0 -6.068,0l0,-2.216Z" style="fill:#017f01;"/></svg>